<svg width="165" height="57" xmlns="http://www.w3.org/2000/svg">

 <g>
  <title>background</title>
  <rect fill="none" id="canvas_background" height="59" width="167" y="-1" x="-1"/>
 </g>
 <g>
  <title>Layer 1</title>
  <g id="svg_1">
   <path id="svg_2" fill="#FFD581" d="m50.429142,28.152666c0,-0.31 0.032,-0.612 0.092,-0.904c-2.878,-8.045 -10.486,-13.596 -19.592,-13.596s-16.714,5.551 -19.592,13.596c0.06,0.292 0.092,0.594 0.092,0.904l0,14c0,0.059 -0.015,0.115 -0.018,0.173c3.065,7.797 10.633,13.327 19.518,13.327c8.885,0 16.453,-5.53 19.518,-13.326c-0.003,-0.059 -0.018,-0.115 -0.018,-0.174l0,-14z"/>
   <path id="svg_3" fill="#CB8252" d="m31.429142,51.652666c-4.411,0 -8,-3.589 -8,-8c0,-0.553 0.447,-1 1,-1s1,0.447 1,1c0,3.309 2.691,6 6,6s6,-2.691 6,-6c0,-0.553 0.447,-1 1,-1s1,0.447 1,1c0,4.411 -3.589,8 -8,8z"/>
   <circle id="svg_4" fill="#B27821" r="2" cy="36.652666" cx="24.429142"/>
   <circle id="svg_5" fill="#B27821" r="2" cy="36.652666" cx="38.429142"/>
   <path id="svg_6" fill="#AF8066" d="m51.413142,30.478666c-1.919,-10.856 -10.215,-18.15 -20.643,-18.15c-10.238,0 -18.407,7.294 -20.326,18.15c-0.091,0.509 0.223,1.003 0.722,1.139c0.16,0.044 3.991,1.07 9.273,1.07c5.188,0 12.669,-1.038 18.855,-5.979c0.16,-0.131 0.247,-0.058 0.304,0.025c1.412,2.104 3.776,5.626 7.791,5.626c1.093,0 2.251,-0.267 3.442,-0.792c0.423,-0.186 0.662,-0.636 0.582,-1.089z"/>
   <path id="svg_7" fill="#8697CB" d="m6.929142,46.652666l0,0c-2.475,0 -4.5,-2.025 -4.5,-4.5l0,-14c0,-2.475 2.025,-4.5 4.5,-4.5l0,0c2.475,0 4.5,2.025 4.5,4.5l0,14c0,2.475 -2.025,4.5 -4.5,4.5z"/>
   <path id="svg_8" fill="#8697CB" d="m54.929142,46.652666l0,0c-2.475,0 -4.5,-2.025 -4.5,-4.5l0,-14c0,-2.475 2.025,-4.5 4.5,-4.5l0,0c2.475,0 4.5,2.025 4.5,4.5l0,14c0,2.475 -2.025,4.5 -4.5,4.5z"/>
   <path id="svg_9" fill="#556080" d="m56.429142,24.652666l-2,0c0,-12.364 -9.663,-21 -23.5,-21s-23.5,8.636 -23.5,21l-2,0c0,-13.327 10.725,-23 25.5,-23s25.5,9.673 25.5,23z"/>
  </g>
  <g id="svg_10"/>
  <g id="svg_11"/>
  <g id="svg_12"/>
  <g id="svg_13"/>
  <g id="svg_14"/>
  <g id="svg_15"/>
  <g id="svg_16"/>
  <g id="svg_17"/>
  <g id="svg_18"/>
  <g id="svg_19"/>
  <g id="svg_20"/>
  <g id="svg_21"/>
  <g id="svg_22"/>
  <g id="svg_23"/>
  <g id="svg_24"/>
  <text font-weight="bold" xml:space="preserve" text-anchor="start" font-family="'Courier New', Courier, monospace" font-size="29" id="svg_25" y="39.050427" x="61.12719" stroke-width="0" fill="#8697CB">Portal</text>
 </g>
</svg>